<mxfile host="app.diagrams.net" modified="2020-12-18T07:47:52.284Z" agent="5.0 (Windows NT 10.0; Win64; x64) AppleWebKit/537.36 (KHTML, like Gecko) Chrome/87.0.4280.88 Safari/537.36" etag="y-7_qBVMvKEyylQ77NO2" version="13.10.2" type="github">
  <diagram id="mjJThseSwqqYlPOW0NKc" name="Page-1">
    <mxGraphModel dx="1038" dy="548" grid="1" gridSize="10" guides="1" tooltips="1" connect="1" arrows="1" fold="1" page="1" pageScale="1" pageWidth="850" pageHeight="1100" math="0" shadow="0">
      <root>
        <mxCell id="0" />
        <mxCell id="1" parent="0" />
        <mxCell id="-aQLtGoFb0Ur4f52--NM-1" value="پزشک" style="whiteSpace=wrap;html=1;align=center;" vertex="1" parent="1">
          <mxGeometry x="410" y="170" width="100" height="40" as="geometry" />
        </mxCell>
        <mxCell id="-aQLtGoFb0Ur4f52--NM-2" value="بیمار" style="whiteSpace=wrap;html=1;align=center;" vertex="1" parent="1">
          <mxGeometry x="270" y="130" width="100" height="40" as="geometry" />
        </mxCell>
        <mxCell id="-aQLtGoFb0Ur4f52--NM-15" style="edgeStyle=orthogonalEdgeStyle;rounded=0;orthogonalLoop=1;jettySize=auto;html=1;" edge="1" parent="1" source="-aQLtGoFb0Ur4f52--NM-3" target="-aQLtGoFb0Ur4f52--NM-2">
          <mxGeometry relative="1" as="geometry" />
        </mxCell>
        <mxCell id="-aQLtGoFb0Ur4f52--NM-16" style="edgeStyle=orthogonalEdgeStyle;rounded=0;orthogonalLoop=1;jettySize=auto;html=1;" edge="1" parent="1" source="-aQLtGoFb0Ur4f52--NM-3" target="-aQLtGoFb0Ur4f52--NM-1">
          <mxGeometry relative="1" as="geometry" />
        </mxCell>
        <mxCell id="-aQLtGoFb0Ur4f52--NM-3" value="نسخه" style="whiteSpace=wrap;html=1;align=center;" vertex="1" parent="1">
          <mxGeometry x="260" y="260" width="100" height="40" as="geometry" />
        </mxCell>
        <mxCell id="-aQLtGoFb0Ur4f52--NM-10" style="edgeStyle=orthogonalEdgeStyle;rounded=0;orthogonalLoop=1;jettySize=auto;html=1;entryX=0.592;entryY=1.015;entryDx=0;entryDy=0;entryPerimeter=0;" edge="1" parent="1" source="-aQLtGoFb0Ur4f52--NM-4" target="-aQLtGoFb0Ur4f52--NM-7">
          <mxGeometry relative="1" as="geometry" />
        </mxCell>
        <mxCell id="-aQLtGoFb0Ur4f52--NM-4" value="دارو" style="whiteSpace=wrap;html=1;align=center;" vertex="1" parent="1">
          <mxGeometry x="710" y="370" width="100" height="40" as="geometry" />
        </mxCell>
        <mxCell id="-aQLtGoFb0Ur4f52--NM-5" value="داروخانه" style="whiteSpace=wrap;html=1;align=center;" vertex="1" parent="1">
          <mxGeometry x="470" y="380" width="100" height="40" as="geometry" />
        </mxCell>
        <mxCell id="-aQLtGoFb0Ur4f52--NM-8" style="edgeStyle=orthogonalEdgeStyle;rounded=0;orthogonalLoop=1;jettySize=auto;html=1;" edge="1" parent="1" source="-aQLtGoFb0Ur4f52--NM-6" target="-aQLtGoFb0Ur4f52--NM-5">
          <mxGeometry relative="1" as="geometry" />
        </mxCell>
        <mxCell id="-aQLtGoFb0Ur4f52--NM-9" style="edgeStyle=orthogonalEdgeStyle;rounded=0;orthogonalLoop=1;jettySize=auto;html=1;entryX=0;entryY=0.5;entryDx=0;entryDy=0;" edge="1" parent="1" source="-aQLtGoFb0Ur4f52--NM-6" target="-aQLtGoFb0Ur4f52--NM-7">
          <mxGeometry relative="1" as="geometry" />
        </mxCell>
        <mxCell id="-aQLtGoFb0Ur4f52--NM-6" value="قرار داد" style="whiteSpace=wrap;html=1;align=center;" vertex="1" parent="1">
          <mxGeometry x="440" y="300" width="100" height="40" as="geometry" />
        </mxCell>
        <mxCell id="-aQLtGoFb0Ur4f52--NM-7" value="شرکت داروسازی" style="whiteSpace=wrap;html=1;align=center;" vertex="1" parent="1">
          <mxGeometry x="610" y="260" width="100" height="40" as="geometry" />
        </mxCell>
        <mxCell id="-aQLtGoFb0Ur4f52--NM-13" style="edgeStyle=orthogonalEdgeStyle;rounded=0;orthogonalLoop=1;jettySize=auto;html=1;entryX=0.5;entryY=1;entryDx=0;entryDy=0;" edge="1" parent="1" source="-aQLtGoFb0Ur4f52--NM-11" target="-aQLtGoFb0Ur4f52--NM-4">
          <mxGeometry relative="1" as="geometry" />
        </mxCell>
        <mxCell id="-aQLtGoFb0Ur4f52--NM-14" style="edgeStyle=orthogonalEdgeStyle;rounded=0;orthogonalLoop=1;jettySize=auto;html=1;entryX=0.5;entryY=1;entryDx=0;entryDy=0;" edge="1" parent="1" source="-aQLtGoFb0Ur4f52--NM-11" target="-aQLtGoFb0Ur4f52--NM-5">
          <mxGeometry relative="1" as="geometry" />
        </mxCell>
        <mxCell id="-aQLtGoFb0Ur4f52--NM-11" value="فروش" style="whiteSpace=wrap;html=1;align=center;" vertex="1" parent="1">
          <mxGeometry x="600" y="470" width="100" height="40" as="geometry" />
        </mxCell>
        <mxCell id="-aQLtGoFb0Ur4f52--NM-18" style="edgeStyle=orthogonalEdgeStyle;rounded=0;orthogonalLoop=1;jettySize=auto;html=1;entryX=0.75;entryY=1;entryDx=0;entryDy=0;" edge="1" parent="1" source="-aQLtGoFb0Ur4f52--NM-17" target="-aQLtGoFb0Ur4f52--NM-4">
          <mxGeometry relative="1" as="geometry" />
        </mxCell>
        <mxCell id="-aQLtGoFb0Ur4f52--NM-19" style="edgeStyle=orthogonalEdgeStyle;rounded=0;orthogonalLoop=1;jettySize=auto;html=1;entryX=0.5;entryY=1;entryDx=0;entryDy=0;" edge="1" parent="1" source="-aQLtGoFb0Ur4f52--NM-17" target="-aQLtGoFb0Ur4f52--NM-3">
          <mxGeometry relative="1" as="geometry" />
        </mxCell>
        <mxCell id="-aQLtGoFb0Ur4f52--NM-17" value="رابطه &quot;دارد&quot; دارو نسخه" style="whiteSpace=wrap;html=1;align=center;" vertex="1" parent="1">
          <mxGeometry x="390" y="600" width="100" height="40" as="geometry" />
        </mxCell>
      </root>
    </mxGraphModel>
  </diagram>
</mxfile>
